<mxfile host="app.diagrams.net" modified="2024-04-14T22:34:59.284Z" agent="Mozilla/5.0 (Windows NT 10.0; Win64; x64) AppleWebKit/537.36 (KHTML, like Gecko) Chrome/122.0.0.0 Safari/537.36 OPR/108.0.0.0" etag="-rvxjZECCK7RBo4ocpr2" version="24.2.3" type="device">
  <diagram name="Page-1" id="2YBvvXClWsGukQMizWep">
    <mxGraphModel dx="1684" dy="459" grid="1" gridSize="10" guides="1" tooltips="1" connect="1" arrows="1" fold="1" page="1" pageScale="1" pageWidth="850" pageHeight="1100" math="0" shadow="0">
      <root>
        <mxCell id="0" />
        <mxCell id="1" parent="0" />
        <mxCell id="aM9ryv3xv72pqoxQDRHE-1" value="Tamagotchi" style="shape=umlLifeline;perimeter=lifelinePerimeter;whiteSpace=wrap;html=1;container=0;dropTarget=0;collapsible=0;recursiveResize=0;outlineConnect=0;portConstraint=eastwest;newEdgeStyle={&quot;edgeStyle&quot;:&quot;elbowEdgeStyle&quot;,&quot;elbow&quot;:&quot;vertical&quot;,&quot;curved&quot;:0,&quot;rounded&quot;:0};" parent="1" vertex="1">
          <mxGeometry x="110" y="40" width="100" height="280" as="geometry" />
        </mxCell>
        <mxCell id="aM9ryv3xv72pqoxQDRHE-2" value="&lt;span style=&quot;color: rgba(0, 0, 0, 0); font-family: monospace; font-size: 0px; text-align: start;&quot;&gt;%3CmxGraphModel%3E%3Croot%3E%3CmxCell%20id%3D%220%22%2F%3E%3CmxCell%20id%3D%221%22%20parent%3D%220%22%2F%3E%3CmxCell%20id%3D%222%22%20value%3D%22%22%20style%3D%22endArrow%3Dclassic%3Bhtml%3D1%3Brounded%3D0%3Bdashed%3D1%3B%22%20edge%3D%221%22%20parent%3D%221%22%3E%3CmxGeometry%20width%3D%2250%22%20height%3D%2250%22%20relative%3D%221%22%20as%3D%22geometry%22%3E%3CmxPoint%20x%3D%22370%22%20y%3D%22159.76%22%20as%3D%22sourcePoint%22%2F%3E%3CmxPoint%20x%3D%22165%22%20y%3D%22159.76%22%20as%3D%22targetPoint%22%2F%3E%3C%2FmxGeometry%3E%3C%2FmxCell%3E%3CmxCell%20id%3D%223%22%20value%3D%22hambriento%22%20style%3D%22edgeLabel%3Bhtml%3D1%3Balign%3Dcenter%3BverticalAlign%3Dmiddle%3Bresizable%3D0%3Bpoints%3D%5B%5D%3B%22%20vertex%3D%221%22%20connectable%3D%220%22%20parent%3D%222%22%3E%3CmxGeometry%20x%3D%220.0729%22%20y%3D%22-2%22%20relative%3D%221%22%20as%3D%22geometry%22%3E%3CmxPoint%20as%3D%22offset%22%2F%3E%3C%2FmxGeometry%3E%3C%2FmxCell%3E%3C%2Froot%3E%3C%2FmxGraphModel%3E&lt;/span&gt;" style="html=1;points=[];perimeter=orthogonalPerimeter;outlineConnect=0;targetShapes=umlLifeline;portConstraint=eastwest;newEdgeStyle={&quot;edgeStyle&quot;:&quot;elbowEdgeStyle&quot;,&quot;elbow&quot;:&quot;vertical&quot;,&quot;curved&quot;:0,&quot;rounded&quot;:0};" parent="aM9ryv3xv72pqoxQDRHE-1" vertex="1">
          <mxGeometry x="45" y="70" width="10" height="190" as="geometry" />
        </mxCell>
        <mxCell id="aM9ryv3xv72pqoxQDRHE-5" value="iState" style="shape=umlLifeline;perimeter=lifelinePerimeter;whiteSpace=wrap;html=1;container=0;dropTarget=0;collapsible=0;recursiveResize=0;outlineConnect=0;portConstraint=eastwest;newEdgeStyle={&quot;edgeStyle&quot;:&quot;elbowEdgeStyle&quot;,&quot;elbow&quot;:&quot;vertical&quot;,&quot;curved&quot;:0,&quot;rounded&quot;:0};" parent="1" vertex="1">
          <mxGeometry x="325" y="40" width="100" height="280" as="geometry" />
        </mxCell>
        <mxCell id="aM9ryv3xv72pqoxQDRHE-6" value="" style="html=1;points=[];perimeter=orthogonalPerimeter;outlineConnect=0;targetShapes=umlLifeline;portConstraint=eastwest;newEdgeStyle={&quot;edgeStyle&quot;:&quot;elbowEdgeStyle&quot;,&quot;elbow&quot;:&quot;vertical&quot;,&quot;curved&quot;:0,&quot;rounded&quot;:0};" parent="aM9ryv3xv72pqoxQDRHE-5" vertex="1">
          <mxGeometry x="45" y="80" width="10" height="170" as="geometry" />
        </mxCell>
        <mxCell id="aM9ryv3xv72pqoxQDRHE-7" value="" style="html=1;verticalAlign=bottom;endArrow=block;edgeStyle=elbowEdgeStyle;elbow=vertical;curved=0;rounded=0;" parent="1" source="aM9ryv3xv72pqoxQDRHE-2" target="aM9ryv3xv72pqoxQDRHE-6" edge="1">
          <mxGeometry relative="1" as="geometry">
            <mxPoint x="300" y="130" as="sourcePoint" />
            <Array as="points">
              <mxPoint x="285" y="120" />
            </Array>
          </mxGeometry>
        </mxCell>
        <mxCell id="SROnAfn5t2hTbx7Tw3jQ-35" value="verEstado" style="edgeLabel;html=1;align=center;verticalAlign=middle;resizable=0;points=[];" vertex="1" connectable="0" parent="aM9ryv3xv72pqoxQDRHE-7">
          <mxGeometry x="0.0478" relative="1" as="geometry">
            <mxPoint as="offset" />
          </mxGeometry>
        </mxCell>
        <mxCell id="SROnAfn5t2hTbx7Tw3jQ-30" value="Actor" style="shape=umlActor;verticalLabelPosition=bottom;verticalAlign=top;html=1;outlineConnect=0;" vertex="1" parent="1">
          <mxGeometry x="30" y="20" width="30" height="60" as="geometry" />
        </mxCell>
        <mxCell id="SROnAfn5t2hTbx7Tw3jQ-31" value="frame" style="shape=umlFrame;whiteSpace=wrap;html=1;pointerEvents=0;" vertex="1" parent="1">
          <mxGeometry x="-130" y="130" width="540" height="190" as="geometry" />
        </mxCell>
        <mxCell id="aM9ryv3xv72pqoxQDRHE-3" value="darDeComer()" style="html=1;verticalAlign=bottom;startArrow=oval;endArrow=block;startSize=8;edgeStyle=elbowEdgeStyle;elbow=vertical;curved=0;rounded=0;" parent="1" target="aM9ryv3xv72pqoxQDRHE-1" edge="1">
          <mxGeometry relative="1" as="geometry">
            <mxPoint x="50" y="110" as="sourcePoint" />
            <mxPoint x="139.5" y="109.9655172413793" as="targetPoint" />
          </mxGeometry>
        </mxCell>
        <mxCell id="SROnAfn5t2hTbx7Tw3jQ-32" value="if esta Hambriento" style="text;html=1;align=center;verticalAlign=middle;resizable=0;points=[];autosize=1;strokeColor=none;fillColor=none;" vertex="1" parent="1">
          <mxGeometry x="-140" y="165" width="120" height="30" as="geometry" />
        </mxCell>
        <mxCell id="SROnAfn5t2hTbx7Tw3jQ-36" value="" style="endArrow=classic;html=1;rounded=0;dashed=1;" edge="1" parent="1">
          <mxGeometry width="50" height="50" relative="1" as="geometry">
            <mxPoint x="370" y="159.76" as="sourcePoint" />
            <mxPoint x="165" y="159.76" as="targetPoint" />
          </mxGeometry>
        </mxCell>
        <mxCell id="SROnAfn5t2hTbx7Tw3jQ-38" value="hambriento" style="edgeLabel;html=1;align=center;verticalAlign=middle;resizable=0;points=[];" vertex="1" connectable="0" parent="SROnAfn5t2hTbx7Tw3jQ-36">
          <mxGeometry x="0.0729" y="-2" relative="1" as="geometry">
            <mxPoint as="offset" />
          </mxGeometry>
        </mxCell>
        <mxCell id="SROnAfn5t2hTbx7Tw3jQ-44" value="" style="endArrow=none;dashed=1;html=1;dashPattern=1 3;strokeWidth=2;rounded=0;entryX=1.003;entryY=0.516;entryDx=0;entryDy=0;entryPerimeter=0;exitX=0;exitY=0.512;exitDx=0;exitDy=0;exitPerimeter=0;" edge="1" parent="1" source="SROnAfn5t2hTbx7Tw3jQ-31" target="SROnAfn5t2hTbx7Tw3jQ-31">
          <mxGeometry width="50" height="50" relative="1" as="geometry">
            <mxPoint x="-131.08" y="230" as="sourcePoint" />
            <mxPoint x="409.99999999999994" y="221.47000000000003" as="targetPoint" />
          </mxGeometry>
        </mxCell>
        <mxCell id="SROnAfn5t2hTbx7Tw3jQ-45" value="else" style="text;html=1;align=center;verticalAlign=middle;resizable=0;points=[];autosize=1;strokeColor=none;fillColor=none;" vertex="1" parent="1">
          <mxGeometry x="-140" y="230" width="50" height="30" as="geometry" />
        </mxCell>
        <mxCell id="SROnAfn5t2hTbx7Tw3jQ-46" value="" style="endArrow=none;dashed=1;html=1;rounded=0;" edge="1" parent="1" source="SROnAfn5t2hTbx7Tw3jQ-53" target="SROnAfn5t2hTbx7Tw3jQ-30">
          <mxGeometry width="50" height="50" relative="1" as="geometry">
            <mxPoint x="45" y="320" as="sourcePoint" />
            <mxPoint x="200" y="200" as="targetPoint" />
          </mxGeometry>
        </mxCell>
        <mxCell id="SROnAfn5t2hTbx7Tw3jQ-47" value="" style="endArrow=classic;html=1;rounded=0;" edge="1" parent="1" source="aM9ryv3xv72pqoxQDRHE-2">
          <mxGeometry width="50" height="50" relative="1" as="geometry">
            <mxPoint x="150" y="250" as="sourcePoint" />
            <mxPoint x="50" y="180" as="targetPoint" />
          </mxGeometry>
        </mxCell>
        <mxCell id="SROnAfn5t2hTbx7Tw3jQ-48" value="comer" style="edgeLabel;html=1;align=center;verticalAlign=middle;resizable=0;points=[];" vertex="1" connectable="0" parent="SROnAfn5t2hTbx7Tw3jQ-47">
          <mxGeometry x="-0.1376" relative="1" as="geometry">
            <mxPoint as="offset" />
          </mxGeometry>
        </mxCell>
        <mxCell id="SROnAfn5t2hTbx7Tw3jQ-49" value="" style="endArrow=classic;html=1;rounded=0;" edge="1" parent="1" target="aM9ryv3xv72pqoxQDRHE-6">
          <mxGeometry width="50" height="50" relative="1" as="geometry">
            <mxPoint x="170" y="195" as="sourcePoint" />
            <mxPoint x="220" y="145" as="targetPoint" />
          </mxGeometry>
        </mxCell>
        <mxCell id="SROnAfn5t2hTbx7Tw3jQ-50" value="estaFeliz" style="edgeLabel;html=1;align=center;verticalAlign=middle;resizable=0;points=[];" vertex="1" connectable="0" parent="SROnAfn5t2hTbx7Tw3jQ-49">
          <mxGeometry x="-0.17" y="3" relative="1" as="geometry">
            <mxPoint as="offset" />
          </mxGeometry>
        </mxCell>
        <mxCell id="SROnAfn5t2hTbx7Tw3jQ-51" value="" style="endArrow=classic;html=1;rounded=0;dashed=1;" edge="1" parent="1">
          <mxGeometry width="50" height="50" relative="1" as="geometry">
            <mxPoint x="370" y="260" as="sourcePoint" />
            <mxPoint x="170" y="260" as="targetPoint" />
          </mxGeometry>
        </mxCell>
        <mxCell id="SROnAfn5t2hTbx7Tw3jQ-52" value="lleno" style="edgeLabel;html=1;align=center;verticalAlign=middle;resizable=0;points=[];" vertex="1" connectable="0" parent="SROnAfn5t2hTbx7Tw3jQ-51">
          <mxGeometry x="0.0729" y="-2" relative="1" as="geometry">
            <mxPoint as="offset" />
          </mxGeometry>
        </mxCell>
        <mxCell id="SROnAfn5t2hTbx7Tw3jQ-54" value="" style="endArrow=none;dashed=1;html=1;rounded=0;" edge="1" parent="1" target="SROnAfn5t2hTbx7Tw3jQ-53">
          <mxGeometry width="50" height="50" relative="1" as="geometry">
            <mxPoint x="45" y="320" as="sourcePoint" />
            <mxPoint x="45" y="80" as="targetPoint" />
          </mxGeometry>
        </mxCell>
        <mxCell id="SROnAfn5t2hTbx7Tw3jQ-53" value="&lt;span style=&quot;color: rgba(0, 0, 0, 0); font-family: monospace; font-size: 0px; text-align: start;&quot;&gt;%3CmxGraphModel%3E%3Croot%3E%3CmxCell%20id%3D%220%22%2F%3E%3CmxCell%20id%3D%221%22%20parent%3D%220%22%2F%3E%3CmxCell%20id%3D%222%22%20value%3D%22%22%20style%3D%22endArrow%3Dclassic%3Bhtml%3D1%3Brounded%3D0%3Bdashed%3D1%3B%22%20edge%3D%221%22%20parent%3D%221%22%3E%3CmxGeometry%20width%3D%2250%22%20height%3D%2250%22%20relative%3D%221%22%20as%3D%22geometry%22%3E%3CmxPoint%20x%3D%22370%22%20y%3D%22159.76%22%20as%3D%22sourcePoint%22%2F%3E%3CmxPoint%20x%3D%22165%22%20y%3D%22159.76%22%20as%3D%22targetPoint%22%2F%3E%3C%2FmxGeometry%3E%3C%2FmxCell%3E%3CmxCell%20id%3D%223%22%20value%3D%22hambriento%22%20style%3D%22edgeLabel%3Bhtml%3D1%3Balign%3Dcenter%3BverticalAlign%3Dmiddle%3Bresizable%3D0%3Bpoints%3D%5B%5D%3B%22%20vertex%3D%221%22%20connectable%3D%220%22%20parent%3D%222%22%3E%3CmxGeometry%20x%3D%220.0729%22%20y%3D%22-2%22%20relative%3D%221%22%20as%3D%22geometry%22%3E%3CmxPoint%20as%3D%22offset%22%2F%3E%3C%2FmxGeometry%3E%3C%2FmxCell%3E%3C%2Froot%3E%3C%2FmxGraphModel%3E&lt;/span&gt;" style="html=1;points=[];perimeter=orthogonalPerimeter;outlineConnect=0;targetShapes=umlLifeline;portConstraint=eastwest;newEdgeStyle={&quot;edgeStyle&quot;:&quot;elbowEdgeStyle&quot;,&quot;elbow&quot;:&quot;vertical&quot;,&quot;curved&quot;:0,&quot;rounded&quot;:0};" vertex="1" parent="1">
          <mxGeometry x="40" y="110" width="10" height="190" as="geometry" />
        </mxCell>
        <mxCell id="SROnAfn5t2hTbx7Tw3jQ-55" value="" style="endArrow=classic;html=1;rounded=0;" edge="1" parent="1">
          <mxGeometry width="50" height="50" relative="1" as="geometry">
            <mxPoint x="150" y="270" as="sourcePoint" />
            <mxPoint x="49.99999999999977" y="270" as="targetPoint" />
            <Array as="points">
              <mxPoint x="100" y="270" />
            </Array>
          </mxGeometry>
        </mxCell>
        <mxCell id="SROnAfn5t2hTbx7Tw3jQ-56" value="rechazarComida" style="edgeLabel;html=1;align=center;verticalAlign=middle;resizable=0;points=[];" vertex="1" connectable="0" parent="SROnAfn5t2hTbx7Tw3jQ-55">
          <mxGeometry x="-0.2462" y="-1" relative="1" as="geometry">
            <mxPoint as="offset" />
          </mxGeometry>
        </mxCell>
        <mxCell id="SROnAfn5t2hTbx7Tw3jQ-82" value="Tamagotchi" style="shape=umlLifeline;perimeter=lifelinePerimeter;whiteSpace=wrap;html=1;container=0;dropTarget=0;collapsible=0;recursiveResize=0;outlineConnect=0;portConstraint=eastwest;newEdgeStyle={&quot;edgeStyle&quot;:&quot;elbowEdgeStyle&quot;,&quot;elbow&quot;:&quot;vertical&quot;,&quot;curved&quot;:0,&quot;rounded&quot;:0};" vertex="1" parent="1">
          <mxGeometry x="127.5" y="400" width="100" height="220" as="geometry" />
        </mxCell>
        <mxCell id="SROnAfn5t2hTbx7Tw3jQ-83" value="&lt;span style=&quot;color: rgba(0, 0, 0, 0); font-family: monospace; font-size: 0px; text-align: start;&quot;&gt;%3CmxGraphModel%3E%3Croot%3E%3CmxCell%20id%3D%220%22%2F%3E%3CmxCell%20id%3D%221%22%20parent%3D%220%22%2F%3E%3CmxCell%20id%3D%222%22%20value%3D%22%22%20style%3D%22endArrow%3Dclassic%3Bhtml%3D1%3Brounded%3D0%3Bdashed%3D1%3B%22%20edge%3D%221%22%20parent%3D%221%22%3E%3CmxGeometry%20width%3D%2250%22%20height%3D%2250%22%20relative%3D%221%22%20as%3D%22geometry%22%3E%3CmxPoint%20x%3D%22370%22%20y%3D%22159.76%22%20as%3D%22sourcePoint%22%2F%3E%3CmxPoint%20x%3D%22165%22%20y%3D%22159.76%22%20as%3D%22targetPoint%22%2F%3E%3C%2FmxGeometry%3E%3C%2FmxCell%3E%3CmxCell%20id%3D%223%22%20value%3D%22hambriento%22%20style%3D%22edgeLabel%3Bhtml%3D1%3Balign%3Dcenter%3BverticalAlign%3Dmiddle%3Bresizable%3D0%3Bpoints%3D%5B%5D%3B%22%20vertex%3D%221%22%20connectable%3D%220%22%20parent%3D%222%22%3E%3CmxGeometry%20x%3D%220.0729%22%20y%3D%22-2%22%20relative%3D%221%22%20as%3D%22geometry%22%3E%3CmxPoint%20as%3D%22offset%22%2F%3E%3C%2FmxGeometry%3E%3C%2FmxCell%3E%3C%2Froot%3E%3C%2FmxGraphModel%3E&lt;/span&gt;" style="html=1;points=[];perimeter=orthogonalPerimeter;outlineConnect=0;targetShapes=umlLifeline;portConstraint=eastwest;newEdgeStyle={&quot;edgeStyle&quot;:&quot;elbowEdgeStyle&quot;,&quot;elbow&quot;:&quot;vertical&quot;,&quot;curved&quot;:0,&quot;rounded&quot;:0};" vertex="1" parent="SROnAfn5t2hTbx7Tw3jQ-82">
          <mxGeometry x="45" y="70" width="10" height="80" as="geometry" />
        </mxCell>
        <mxCell id="SROnAfn5t2hTbx7Tw3jQ-84" value="iState" style="shape=umlLifeline;perimeter=lifelinePerimeter;whiteSpace=wrap;html=1;container=0;dropTarget=0;collapsible=0;recursiveResize=0;outlineConnect=0;portConstraint=eastwest;newEdgeStyle={&quot;edgeStyle&quot;:&quot;elbowEdgeStyle&quot;,&quot;elbow&quot;:&quot;vertical&quot;,&quot;curved&quot;:0,&quot;rounded&quot;:0};" vertex="1" parent="1">
          <mxGeometry x="342.5" y="400" width="100" height="220" as="geometry" />
        </mxCell>
        <mxCell id="SROnAfn5t2hTbx7Tw3jQ-85" value="" style="html=1;points=[];perimeter=orthogonalPerimeter;outlineConnect=0;targetShapes=umlLifeline;portConstraint=eastwest;newEdgeStyle={&quot;edgeStyle&quot;:&quot;elbowEdgeStyle&quot;,&quot;elbow&quot;:&quot;vertical&quot;,&quot;curved&quot;:0,&quot;rounded&quot;:0};" vertex="1" parent="SROnAfn5t2hTbx7Tw3jQ-84">
          <mxGeometry x="45" y="80" width="10" height="50" as="geometry" />
        </mxCell>
        <mxCell id="SROnAfn5t2hTbx7Tw3jQ-86" value="" style="html=1;verticalAlign=bottom;endArrow=block;edgeStyle=elbowEdgeStyle;elbow=vertical;curved=0;rounded=0;" edge="1" parent="1" source="SROnAfn5t2hTbx7Tw3jQ-83" target="SROnAfn5t2hTbx7Tw3jQ-85">
          <mxGeometry relative="1" as="geometry">
            <mxPoint x="317.5" y="490" as="sourcePoint" />
            <Array as="points">
              <mxPoint x="302.5" y="480" />
            </Array>
          </mxGeometry>
        </mxCell>
        <mxCell id="SROnAfn5t2hTbx7Tw3jQ-87" value="verEstado" style="edgeLabel;html=1;align=center;verticalAlign=middle;resizable=0;points=[];" vertex="1" connectable="0" parent="SROnAfn5t2hTbx7Tw3jQ-86">
          <mxGeometry x="0.0478" relative="1" as="geometry">
            <mxPoint as="offset" />
          </mxGeometry>
        </mxCell>
        <mxCell id="SROnAfn5t2hTbx7Tw3jQ-88" value="Actor" style="shape=umlActor;verticalLabelPosition=bottom;verticalAlign=top;html=1;outlineConnect=0;" vertex="1" parent="1">
          <mxGeometry x="47.5" y="380" width="30" height="60" as="geometry" />
        </mxCell>
        <mxCell id="SROnAfn5t2hTbx7Tw3jQ-90" value="pegar()" style="html=1;verticalAlign=bottom;startArrow=oval;endArrow=block;startSize=8;edgeStyle=elbowEdgeStyle;elbow=vertical;curved=0;rounded=0;" edge="1" parent="1" target="SROnAfn5t2hTbx7Tw3jQ-82">
          <mxGeometry x="-0.0052" relative="1" as="geometry">
            <mxPoint x="67.5" y="470" as="sourcePoint" />
            <mxPoint x="157" y="469.9655172413793" as="targetPoint" />
            <mxPoint as="offset" />
          </mxGeometry>
        </mxCell>
        <mxCell id="SROnAfn5t2hTbx7Tw3jQ-92" value="" style="endArrow=classic;html=1;rounded=0;dashed=1;" edge="1" parent="1">
          <mxGeometry width="50" height="50" relative="1" as="geometry">
            <mxPoint x="387.5" y="519.76" as="sourcePoint" />
            <mxPoint x="182.5" y="519.76" as="targetPoint" />
          </mxGeometry>
        </mxCell>
        <mxCell id="SROnAfn5t2hTbx7Tw3jQ-93" value="triste" style="edgeLabel;html=1;align=center;verticalAlign=middle;resizable=0;points=[];" vertex="1" connectable="0" parent="SROnAfn5t2hTbx7Tw3jQ-92">
          <mxGeometry x="0.0729" y="-2" relative="1" as="geometry">
            <mxPoint as="offset" />
          </mxGeometry>
        </mxCell>
        <mxCell id="SROnAfn5t2hTbx7Tw3jQ-96" value="" style="endArrow=none;dashed=1;html=1;rounded=0;" edge="1" parent="1" source="SROnAfn5t2hTbx7Tw3jQ-104" target="SROnAfn5t2hTbx7Tw3jQ-88">
          <mxGeometry width="50" height="50" relative="1" as="geometry">
            <mxPoint x="62.5" y="680" as="sourcePoint" />
            <mxPoint x="217.5" y="560" as="targetPoint" />
          </mxGeometry>
        </mxCell>
        <mxCell id="SROnAfn5t2hTbx7Tw3jQ-97" value="" style="endArrow=classic;html=1;rounded=0;" edge="1" parent="1" source="SROnAfn5t2hTbx7Tw3jQ-83">
          <mxGeometry width="50" height="50" relative="1" as="geometry">
            <mxPoint x="167.5" y="610" as="sourcePoint" />
            <mxPoint x="67.5" y="540" as="targetPoint" />
          </mxGeometry>
        </mxCell>
        <mxCell id="SROnAfn5t2hTbx7Tw3jQ-98" value="llora" style="edgeLabel;html=1;align=center;verticalAlign=middle;resizable=0;points=[];" vertex="1" connectable="0" parent="SROnAfn5t2hTbx7Tw3jQ-97">
          <mxGeometry x="-0.1376" relative="1" as="geometry">
            <mxPoint as="offset" />
          </mxGeometry>
        </mxCell>
        <mxCell id="SROnAfn5t2hTbx7Tw3jQ-103" value="" style="endArrow=none;dashed=1;html=1;rounded=0;" edge="1" parent="1" target="SROnAfn5t2hTbx7Tw3jQ-104">
          <mxGeometry width="50" height="50" relative="1" as="geometry">
            <mxPoint x="62" y="620" as="sourcePoint" />
            <mxPoint x="62.5" y="440" as="targetPoint" />
          </mxGeometry>
        </mxCell>
        <mxCell id="SROnAfn5t2hTbx7Tw3jQ-104" value="&lt;span style=&quot;color: rgba(0, 0, 0, 0); font-family: monospace; font-size: 0px; text-align: start;&quot;&gt;%3CmxGraphModel%3E%3Croot%3E%3CmxCell%20id%3D%220%22%2F%3E%3CmxCell%20id%3D%221%22%20parent%3D%220%22%2F%3E%3CmxCell%20id%3D%222%22%20value%3D%22%22%20style%3D%22endArrow%3Dclassic%3Bhtml%3D1%3Brounded%3D0%3Bdashed%3D1%3B%22%20edge%3D%221%22%20parent%3D%221%22%3E%3CmxGeometry%20width%3D%2250%22%20height%3D%2250%22%20relative%3D%221%22%20as%3D%22geometry%22%3E%3CmxPoint%20x%3D%22370%22%20y%3D%22159.76%22%20as%3D%22sourcePoint%22%2F%3E%3CmxPoint%20x%3D%22165%22%20y%3D%22159.76%22%20as%3D%22targetPoint%22%2F%3E%3C%2FmxGeometry%3E%3C%2FmxCell%3E%3CmxCell%20id%3D%223%22%20value%3D%22hambriento%22%20style%3D%22edgeLabel%3Bhtml%3D1%3Balign%3Dcenter%3BverticalAlign%3Dmiddle%3Bresizable%3D0%3Bpoints%3D%5B%5D%3B%22%20vertex%3D%221%22%20connectable%3D%220%22%20parent%3D%222%22%3E%3CmxGeometry%20x%3D%220.0729%22%20y%3D%22-2%22%20relative%3D%221%22%20as%3D%22geometry%22%3E%3CmxPoint%20as%3D%22offset%22%2F%3E%3C%2FmxGeometry%3E%3C%2FmxCell%3E%3C%2Froot%3E%3C%2FmxGraphModel%3E&lt;/span&gt;" style="html=1;points=[];perimeter=orthogonalPerimeter;outlineConnect=0;targetShapes=umlLifeline;portConstraint=eastwest;newEdgeStyle={&quot;edgeStyle&quot;:&quot;elbowEdgeStyle&quot;,&quot;elbow&quot;:&quot;vertical&quot;,&quot;curved&quot;:0,&quot;rounded&quot;:0};" vertex="1" parent="1">
          <mxGeometry x="57.5" y="470" width="10" height="110" as="geometry" />
        </mxCell>
        <mxCell id="SROnAfn5t2hTbx7Tw3jQ-107" value="Tamagotchi" style="shape=umlLifeline;perimeter=lifelinePerimeter;whiteSpace=wrap;html=1;container=0;dropTarget=0;collapsible=0;recursiveResize=0;outlineConnect=0;portConstraint=eastwest;newEdgeStyle={&quot;edgeStyle&quot;:&quot;elbowEdgeStyle&quot;,&quot;elbow&quot;:&quot;vertical&quot;,&quot;curved&quot;:0,&quot;rounded&quot;:0};" vertex="1" parent="1">
          <mxGeometry x="780" y="40" width="100" height="380" as="geometry" />
        </mxCell>
        <mxCell id="SROnAfn5t2hTbx7Tw3jQ-108" value="&lt;span style=&quot;color: rgba(0, 0, 0, 0); font-family: monospace; font-size: 0px; text-align: start;&quot;&gt;%3CmxGraphModel%3E%3Croot%3E%3CmxCell%20id%3D%220%22%2F%3E%3CmxCell%20id%3D%221%22%20parent%3D%220%22%2F%3E%3CmxCell%20id%3D%222%22%20value%3D%22%22%20style%3D%22endArrow%3Dclassic%3Bhtml%3D1%3Brounded%3D0%3Bdashed%3D1%3B%22%20edge%3D%221%22%20parent%3D%221%22%3E%3CmxGeometry%20width%3D%2250%22%20height%3D%2250%22%20relative%3D%221%22%20as%3D%22geometry%22%3E%3CmxPoint%20x%3D%22370%22%20y%3D%22159.76%22%20as%3D%22sourcePoint%22%2F%3E%3CmxPoint%20x%3D%22165%22%20y%3D%22159.76%22%20as%3D%22targetPoint%22%2F%3E%3C%2FmxGeometry%3E%3C%2FmxCell%3E%3CmxCell%20id%3D%223%22%20value%3D%22hambriento%22%20style%3D%22edgeLabel%3Bhtml%3D1%3Balign%3Dcenter%3BverticalAlign%3Dmiddle%3Bresizable%3D0%3Bpoints%3D%5B%5D%3B%22%20vertex%3D%221%22%20connectable%3D%220%22%20parent%3D%222%22%3E%3CmxGeometry%20x%3D%220.0729%22%20y%3D%22-2%22%20relative%3D%221%22%20as%3D%22geometry%22%3E%3CmxPoint%20as%3D%22offset%22%2F%3E%3C%2FmxGeometry%3E%3C%2FmxCell%3E%3C%2Froot%3E%3C%2FmxGraphModel%3E&lt;/span&gt;" style="html=1;points=[];perimeter=orthogonalPerimeter;outlineConnect=0;targetShapes=umlLifeline;portConstraint=eastwest;newEdgeStyle={&quot;edgeStyle&quot;:&quot;elbowEdgeStyle&quot;,&quot;elbow&quot;:&quot;vertical&quot;,&quot;curved&quot;:0,&quot;rounded&quot;:0};" vertex="1" parent="SROnAfn5t2hTbx7Tw3jQ-107">
          <mxGeometry x="45" y="70" width="10" height="260" as="geometry" />
        </mxCell>
        <mxCell id="SROnAfn5t2hTbx7Tw3jQ-109" value="iState" style="shape=umlLifeline;perimeter=lifelinePerimeter;whiteSpace=wrap;html=1;container=0;dropTarget=0;collapsible=0;recursiveResize=0;outlineConnect=0;portConstraint=eastwest;newEdgeStyle={&quot;edgeStyle&quot;:&quot;elbowEdgeStyle&quot;,&quot;elbow&quot;:&quot;vertical&quot;,&quot;curved&quot;:0,&quot;rounded&quot;:0};" vertex="1" parent="1">
          <mxGeometry x="995" y="40" width="100" height="320" as="geometry" />
        </mxCell>
        <mxCell id="SROnAfn5t2hTbx7Tw3jQ-110" value="" style="html=1;points=[];perimeter=orthogonalPerimeter;outlineConnect=0;targetShapes=umlLifeline;portConstraint=eastwest;newEdgeStyle={&quot;edgeStyle&quot;:&quot;elbowEdgeStyle&quot;,&quot;elbow&quot;:&quot;vertical&quot;,&quot;curved&quot;:0,&quot;rounded&quot;:0};" vertex="1" parent="SROnAfn5t2hTbx7Tw3jQ-109">
          <mxGeometry x="45" y="70" width="10" height="250" as="geometry" />
        </mxCell>
        <mxCell id="SROnAfn5t2hTbx7Tw3jQ-111" value="" style="html=1;verticalAlign=bottom;endArrow=block;edgeStyle=elbowEdgeStyle;elbow=vertical;curved=0;rounded=0;" edge="1" parent="1">
          <mxGeometry relative="1" as="geometry">
            <mxPoint x="840" y="120" as="sourcePoint" />
            <Array as="points">
              <mxPoint x="960" y="120" />
            </Array>
            <mxPoint x="1045" y="120" as="targetPoint" />
          </mxGeometry>
        </mxCell>
        <mxCell id="SROnAfn5t2hTbx7Tw3jQ-112" value="verEstado" style="edgeLabel;html=1;align=center;verticalAlign=middle;resizable=0;points=[];" vertex="1" connectable="0" parent="SROnAfn5t2hTbx7Tw3jQ-111">
          <mxGeometry x="0.0478" relative="1" as="geometry">
            <mxPoint as="offset" />
          </mxGeometry>
        </mxCell>
        <mxCell id="SROnAfn5t2hTbx7Tw3jQ-113" value="Actor" style="shape=umlActor;verticalLabelPosition=bottom;verticalAlign=top;html=1;outlineConnect=0;" vertex="1" parent="1">
          <mxGeometry x="700" y="20" width="30" height="60" as="geometry" />
        </mxCell>
        <mxCell id="SROnAfn5t2hTbx7Tw3jQ-114" value="frame" style="shape=umlFrame;whiteSpace=wrap;html=1;pointerEvents=0;" vertex="1" parent="1">
          <mxGeometry x="535" y="230" width="540" height="190" as="geometry" />
        </mxCell>
        <mxCell id="SROnAfn5t2hTbx7Tw3jQ-115" value="darDeTomar" style="html=1;verticalAlign=bottom;startArrow=oval;endArrow=block;startSize=8;edgeStyle=elbowEdgeStyle;elbow=vertical;curved=0;rounded=0;" edge="1" parent="1" target="SROnAfn5t2hTbx7Tw3jQ-107">
          <mxGeometry relative="1" as="geometry">
            <mxPoint x="720" y="110" as="sourcePoint" />
            <mxPoint x="809.5" y="109.9655172413793" as="targetPoint" />
          </mxGeometry>
        </mxCell>
        <mxCell id="SROnAfn5t2hTbx7Tw3jQ-116" value="if esta Sediento" style="text;html=1;align=center;verticalAlign=middle;resizable=0;points=[];autosize=1;strokeColor=none;fillColor=none;" vertex="1" parent="1">
          <mxGeometry x="535" y="255" width="110" height="30" as="geometry" />
        </mxCell>
        <mxCell id="SROnAfn5t2hTbx7Tw3jQ-117" value="" style="endArrow=classic;html=1;rounded=0;dashed=1;" edge="1" parent="1">
          <mxGeometry width="50" height="50" relative="1" as="geometry">
            <mxPoint x="1040" y="249.76" as="sourcePoint" />
            <mxPoint x="835" y="249.76" as="targetPoint" />
          </mxGeometry>
        </mxCell>
        <mxCell id="SROnAfn5t2hTbx7Tw3jQ-118" value="sediento" style="edgeLabel;html=1;align=center;verticalAlign=middle;resizable=0;points=[];" vertex="1" connectable="0" parent="SROnAfn5t2hTbx7Tw3jQ-117">
          <mxGeometry x="0.0729" y="-2" relative="1" as="geometry">
            <mxPoint as="offset" />
          </mxGeometry>
        </mxCell>
        <mxCell id="SROnAfn5t2hTbx7Tw3jQ-119" value="" style="endArrow=none;dashed=1;html=1;dashPattern=1 3;strokeWidth=2;rounded=0;exitX=0.157;exitY=0.004;exitDx=0;exitDy=0;exitPerimeter=0;" edge="1" parent="1" source="SROnAfn5t2hTbx7Tw3jQ-120">
          <mxGeometry width="50" height="50" relative="1" as="geometry">
            <mxPoint x="538.92" y="320" as="sourcePoint" />
            <mxPoint x="1070" y="320" as="targetPoint" />
          </mxGeometry>
        </mxCell>
        <mxCell id="SROnAfn5t2hTbx7Tw3jQ-120" value="else" style="text;html=1;align=center;verticalAlign=middle;resizable=0;points=[];autosize=1;strokeColor=none;fillColor=none;" vertex="1" parent="1">
          <mxGeometry x="530" y="320" width="50" height="30" as="geometry" />
        </mxCell>
        <mxCell id="SROnAfn5t2hTbx7Tw3jQ-121" value="" style="endArrow=none;dashed=1;html=1;rounded=0;" edge="1" parent="1" source="SROnAfn5t2hTbx7Tw3jQ-129" target="SROnAfn5t2hTbx7Tw3jQ-113">
          <mxGeometry width="50" height="50" relative="1" as="geometry">
            <mxPoint x="715" y="320" as="sourcePoint" />
            <mxPoint x="870" y="200" as="targetPoint" />
          </mxGeometry>
        </mxCell>
        <mxCell id="SROnAfn5t2hTbx7Tw3jQ-122" value="" style="endArrow=classic;html=1;rounded=0;" edge="1" parent="1">
          <mxGeometry width="50" height="50" relative="1" as="geometry">
            <mxPoint x="825" y="270" as="sourcePoint" />
            <mxPoint x="720" y="270" as="targetPoint" />
          </mxGeometry>
        </mxCell>
        <mxCell id="SROnAfn5t2hTbx7Tw3jQ-123" value="tomar" style="edgeLabel;html=1;align=center;verticalAlign=middle;resizable=0;points=[];" vertex="1" connectable="0" parent="SROnAfn5t2hTbx7Tw3jQ-122">
          <mxGeometry x="-0.1376" relative="1" as="geometry">
            <mxPoint as="offset" />
          </mxGeometry>
        </mxCell>
        <mxCell id="SROnAfn5t2hTbx7Tw3jQ-124" value="" style="endArrow=classic;html=1;rounded=0;" edge="1" parent="1">
          <mxGeometry width="50" height="50" relative="1" as="geometry">
            <mxPoint x="840" y="285" as="sourcePoint" />
            <mxPoint x="1040" y="285" as="targetPoint" />
          </mxGeometry>
        </mxCell>
        <mxCell id="SROnAfn5t2hTbx7Tw3jQ-125" value="SinSed" style="edgeLabel;html=1;align=center;verticalAlign=middle;resizable=0;points=[];" vertex="1" connectable="0" parent="SROnAfn5t2hTbx7Tw3jQ-124">
          <mxGeometry x="-0.17" y="3" relative="1" as="geometry">
            <mxPoint as="offset" />
          </mxGeometry>
        </mxCell>
        <mxCell id="SROnAfn5t2hTbx7Tw3jQ-126" value="" style="endArrow=classic;html=1;rounded=0;dashed=1;" edge="1" parent="1">
          <mxGeometry width="50" height="50" relative="1" as="geometry">
            <mxPoint x="1040" y="350" as="sourcePoint" />
            <mxPoint x="840" y="350" as="targetPoint" />
          </mxGeometry>
        </mxCell>
        <mxCell id="SROnAfn5t2hTbx7Tw3jQ-127" value="SinSed" style="edgeLabel;html=1;align=center;verticalAlign=middle;resizable=0;points=[];" vertex="1" connectable="0" parent="SROnAfn5t2hTbx7Tw3jQ-126">
          <mxGeometry x="0.0729" y="-2" relative="1" as="geometry">
            <mxPoint as="offset" />
          </mxGeometry>
        </mxCell>
        <mxCell id="SROnAfn5t2hTbx7Tw3jQ-128" value="" style="endArrow=none;dashed=1;html=1;rounded=0;" edge="1" parent="1" target="SROnAfn5t2hTbx7Tw3jQ-129">
          <mxGeometry width="50" height="50" relative="1" as="geometry">
            <mxPoint x="715" y="410" as="sourcePoint" />
            <mxPoint x="715" y="390" as="targetPoint" />
          </mxGeometry>
        </mxCell>
        <mxCell id="SROnAfn5t2hTbx7Tw3jQ-129" value="&lt;span style=&quot;color: rgba(0, 0, 0, 0); font-family: monospace; font-size: 0px; text-align: start;&quot;&gt;%3CmxGraphModel%3E%3Croot%3E%3CmxCell%20id%3D%220%22%2F%3E%3CmxCell%20id%3D%221%22%20parent%3D%220%22%2F%3E%3CmxCell%20id%3D%222%22%20value%3D%22%22%20style%3D%22endArrow%3Dclassic%3Bhtml%3D1%3Brounded%3D0%3Bdashed%3D1%3B%22%20edge%3D%221%22%20parent%3D%221%22%3E%3CmxGeometry%20width%3D%2250%22%20height%3D%2250%22%20relative%3D%221%22%20as%3D%22geometry%22%3E%3CmxPoint%20x%3D%22370%22%20y%3D%22159.76%22%20as%3D%22sourcePoint%22%2F%3E%3CmxPoint%20x%3D%22165%22%20y%3D%22159.76%22%20as%3D%22targetPoint%22%2F%3E%3C%2FmxGeometry%3E%3C%2FmxCell%3E%3CmxCell%20id%3D%223%22%20value%3D%22hambriento%22%20style%3D%22edgeLabel%3Bhtml%3D1%3Balign%3Dcenter%3BverticalAlign%3Dmiddle%3Bresizable%3D0%3Bpoints%3D%5B%5D%3B%22%20vertex%3D%221%22%20connectable%3D%220%22%20parent%3D%222%22%3E%3CmxGeometry%20x%3D%220.0729%22%20y%3D%22-2%22%20relative%3D%221%22%20as%3D%22geometry%22%3E%3CmxPoint%20as%3D%22offset%22%2F%3E%3C%2FmxGeometry%3E%3C%2FmxCell%3E%3C%2Froot%3E%3C%2FmxGraphModel%3E&lt;/span&gt;" style="html=1;points=[];perimeter=orthogonalPerimeter;outlineConnect=0;targetShapes=umlLifeline;portConstraint=eastwest;newEdgeStyle={&quot;edgeStyle&quot;:&quot;elbowEdgeStyle&quot;,&quot;elbow&quot;:&quot;vertical&quot;,&quot;curved&quot;:0,&quot;rounded&quot;:0};" vertex="1" parent="1">
          <mxGeometry x="710" y="110" width="10" height="260" as="geometry" />
        </mxCell>
        <mxCell id="SROnAfn5t2hTbx7Tw3jQ-130" value="" style="endArrow=classic;html=1;rounded=0;" edge="1" parent="1">
          <mxGeometry width="50" height="50" relative="1" as="geometry">
            <mxPoint x="820" y="360" as="sourcePoint" />
            <mxPoint x="719.9999999999998" y="360" as="targetPoint" />
            <Array as="points" />
          </mxGeometry>
        </mxCell>
        <mxCell id="SROnAfn5t2hTbx7Tw3jQ-131" value="rechazarBebida" style="edgeLabel;html=1;align=center;verticalAlign=middle;resizable=0;points=[];" vertex="1" connectable="0" parent="SROnAfn5t2hTbx7Tw3jQ-130">
          <mxGeometry x="-0.2462" y="-1" relative="1" as="geometry">
            <mxPoint as="offset" />
          </mxGeometry>
        </mxCell>
        <mxCell id="SROnAfn5t2hTbx7Tw3jQ-132" value="frame" style="shape=umlFrame;whiteSpace=wrap;html=1;pointerEvents=0;" vertex="1" parent="1">
          <mxGeometry x="530" y="140" width="565" height="290" as="geometry" />
        </mxCell>
        <mxCell id="SROnAfn5t2hTbx7Tw3jQ-134" value="if estaTriste" style="text;html=1;align=center;verticalAlign=middle;whiteSpace=wrap;rounded=0;" vertex="1" parent="1">
          <mxGeometry x="535" y="170" width="60" height="30" as="geometry" />
        </mxCell>
        <mxCell id="SROnAfn5t2hTbx7Tw3jQ-135" value="" style="endArrow=classic;html=1;rounded=0;dashed=1;" edge="1" parent="1">
          <mxGeometry width="50" height="50" relative="1" as="geometry">
            <mxPoint x="1045" y="165" as="sourcePoint" />
            <mxPoint x="840" y="165" as="targetPoint" />
          </mxGeometry>
        </mxCell>
        <mxCell id="SROnAfn5t2hTbx7Tw3jQ-136" value="estaTriste" style="edgeLabel;html=1;align=center;verticalAlign=middle;resizable=0;points=[];" vertex="1" connectable="0" parent="SROnAfn5t2hTbx7Tw3jQ-135">
          <mxGeometry x="0.0729" y="-2" relative="1" as="geometry">
            <mxPoint as="offset" />
          </mxGeometry>
        </mxCell>
        <mxCell id="SROnAfn5t2hTbx7Tw3jQ-137" value="" style="endArrow=classic;html=1;rounded=0;" edge="1" parent="1">
          <mxGeometry width="50" height="50" relative="1" as="geometry">
            <mxPoint x="824.5" y="179.66000000000003" as="sourcePoint" />
            <mxPoint x="720" y="179.66000000000003" as="targetPoint" />
          </mxGeometry>
        </mxCell>
        <mxCell id="SROnAfn5t2hTbx7Tw3jQ-138" value="llora" style="edgeLabel;html=1;align=center;verticalAlign=middle;resizable=0;points=[];" vertex="1" connectable="0" parent="SROnAfn5t2hTbx7Tw3jQ-137">
          <mxGeometry x="-0.1376" relative="1" as="geometry">
            <mxPoint as="offset" />
          </mxGeometry>
        </mxCell>
        <mxCell id="SROnAfn5t2hTbx7Tw3jQ-139" value="else" style="text;html=1;align=center;verticalAlign=middle;whiteSpace=wrap;rounded=0;" vertex="1" parent="1">
          <mxGeometry x="520" y="210" width="60" height="30" as="geometry" />
        </mxCell>
        <mxCell id="SROnAfn5t2hTbx7Tw3jQ-140" value="" style="endArrow=none;dashed=1;html=1;dashPattern=1 3;strokeWidth=2;rounded=0;exitX=0.157;exitY=0.004;exitDx=0;exitDy=0;exitPerimeter=0;entryX=1.001;entryY=0.238;entryDx=0;entryDy=0;entryPerimeter=0;" edge="1" parent="1" target="SROnAfn5t2hTbx7Tw3jQ-132">
          <mxGeometry width="50" height="50" relative="1" as="geometry">
            <mxPoint x="530" y="210" as="sourcePoint" />
            <mxPoint x="1062" y="210" as="targetPoint" />
          </mxGeometry>
        </mxCell>
      </root>
    </mxGraphModel>
  </diagram>
</mxfile>
